<svg xmlns="http://www.w3.org/2000/svg" viewBox="0 0 316.46 316.46"><defs><style>.cls-1{fill:#1a2c37;}.cls-2{fill:#fff;}</style></defs><title>Artboard 66</title><g id="Layer_1" data-name="Layer 1"><rect class="cls-1" width="316.46" height="316.46"/><path class="cls-2" d="M55.26,133.09c0-15.82,10.06-24.59,28.64-24.66,13.39-.05,15.77,8.7,15.78,11.88,0,6.09-8.62,12.55-8.62,12.55s.48,3.79,7.88,3.77,14.59-4.92,14.55-17.14c0-14-14.75-20.45-29.29-20.4-12.15,0-44.39,1.75-44.28,33.77C40,161.31,93.66,163.81,93.72,182c.08,19.78-22.12,25.1-29.6,25.13s-10.55-5.34-10.56-8.28c-.06-16,15.87-20.48,15.87-20.48a6.69,6.69,0,0,0-7.1-6.5C46.43,172,40.1,185.63,40.15,199c0,11.35,8.07,18.44,20.18,18.39,23.16-.08,49.28-11.39,49.19-36.5C109.44,157.38,55.33,151.25,55.26,133.09Z"/><path class="cls-2" d="M276.1,196c-.19-.45-.71-.34-1.39.23-2.63,2.17-8.64,8.31-22.71,8.37-25.64.09-30.09-42.18-30.09-42.18s19.54-14.6,22.59-20.48-6.66-7.19-6.66-7.19-13.67,16.63-23.35,21.52c1-7.23,8.19-23.72,8.63-33.21s-11.41-7.17-13.3-6.26c0,4.14-10.44,41.74-14.25,62.4-2.24,3.58-5.44,7.69-8.31,7.7-1.66,0-2.27-3.08-2.29-7.49,0-6.12,3.37-15.93,3.35-21.89,0-4.12-1.9-4.37-3.53-4.36l-2.67.05c-4.17,0-2.81-3.56-6.56-3.55-11.52,0-26.19,12.62-26.82,31.61-3.89,2.58-9.33,5.82-12.11,5.83s-3.64-2.69-3.65-5c0-4.1,6.62-28.42,6.62-28.42s8.43-2.16,12.11-2.88c2.79-.54,3.56-.74,4.67-2.09s3.19-4.12,4.9-6.62,0-4.42-3.13-4.41c-4.15,0-15.24,2.63-15.24,2.63s5.33-23,5.33-23.46-.63-.71-1.5-.7c-2,0-5.63,1.09-7.93,1.91-3.53,1.26-6.41,5.59-7,7.6s-4.57,17.79-4.57,17.79-21.37,7.38-24.29,8.49a.42.42,0,0,0-.3.42c0,.18,2.44,9.54,7.45,9.52,3.61,0,14.12-4.31,14.12-4.31s-5.41,21.53-5.39,28.69c0,4.6,2.17,10,11.16,10,8.38,0,15.68-4.32,19.78-7.33a11.59,11.59,0,0,0,11.14,7.22c8.11,0,14.36-6.47,15.14-7.33,1.05,2.48,3.53,7.26,9.19,7.24,3.21,0,6.52-3.62,9-7.07a13.66,13.66,0,0,0,0,2.17c1,8.92,14.21,3.68,14.92,2.43.45-6.44.16-19.63,2.74-27.77,3.41,27.77,16.38,46.45,39.68,46.36,13,0,19.7-3.79,22.48-6.88A9.53,9.53,0,0,0,276.1,196Zm-111.81-9.15c-11.18,0,3.42-29,13-29C177.27,161.59,177.06,186.81,164.29,186.86Z"/><path class="cls-2" d="M255.12,195.75c10.1,0,17.93-6.69,19.36-8.85,1.85-2.82-2.15-7.07-3.43-7-3.18,3.05-6.52,6.74-14,6.77-8.81,0-6.82-9.67-6.82-9.67s17,2.2,23.78-10c2.18-3.9,2.27-9.3,1.39-11.62s-5.81-6.63-13.66-6c-9.65.81-21.79,10.87-24.46,23C235.13,182.08,239.19,195.81,255.12,195.75Zm10.78-40.7c1.58-.05,1.44,2.56,1,5.3-.57,3.71-5.69,13.13-15.41,12.78C252.16,167.64,259.39,155.28,265.9,155.05Z"/></g></svg>